<?xml version="1.0" encoding="UTF-8" standalone="no"?> <svg width="512" height="512" viewBox="0 0 512 512" fill="none" xmlns="http://www.w3.org/2000/svg">
<path d="M32 128C32 74.9807 74.9807 32 128 32H384C437.019 32 480 74.9807 480 128V384C480 437.019 437.019 480 384 480H128C74.9807 480 32 437.019 32 384V128Z" fill="#597DDC"/>
<path fill-rule="evenodd" clip-rule="evenodd" d="M128 32C74.9807 32 32 74.9807 32 128V368C32 412.183 67.8172 448 112 448H368C412.183 448 448 412.183 448 368V112C448 67.8172 412.183 32 368 32H128Z" fill="#6EBAFF"/>
<path fill-rule="evenodd" clip-rule="evenodd" d="M184 108C195.046 108 204 116.954 204 128V230.078L339.416 120.455C348.001 113.505 360.595 114.831 367.545 123.416C374.495 132.001 373.169 144.595 364.584 151.545L265.71 231.586L368.165 372.224C374.669 381.151 372.704 393.661 363.776 400.165C354.849 406.669 342.339 404.704 335.835 395.776L234.58 256.786L204 281.541V384C204 395.046 195.046 404 184 404C172.954 404 164 395.046 164 384V128C164 116.954 172.954 108 184 108Z" fill="white"/>
</svg>